<svg width="793" height="646" viewBox="0 0 793 646" fill="none" xmlns="http://www.w3.org/2000/svg">
<path d="M62.5412 352.172C110.093 364.06 155.959 390.232 205.965 386.065C225.114 395.639 220.788 430.1 232.649 444.596C236.925 449.823 237.547 460.998 240.395 467.406C242.809 472.836 243.25 478.658 245.668 483.976C247.739 488.532 246.159 493.683 248.142 498.394C249.763 502.243 251.356 506.787 252.446 510.875C255.361 521.806 261.343 531.892 263.636 542.938C267.237 560.29 286.574 634.801 304.63 613.735C311.3 605.954 310.547 582.419 310.547 572.419C310.547 552.188 308.611 531.677 308.611 511.843C308.611 492.629 307.905 474.781 314.421 456.862C316.07 452.326 320.327 441.787 325.18 440.4C335.176 437.544 338.083 439.747 348.851 443.736C362.096 448.641 381.029 457.22 389.952 468.375C393.72 473.085 403.7 475.88 408.459 481.071C415.212 488.439 424.079 496.384 432.129 502.267C440.152 508.13 446.153 515.645 453.003 522.495C461.892 531.384 472.347 538.392 481.408 547.242C491.73 557.324 501.373 568.068 511.534 578.229C518.264 584.959 526.363 590.639 532.193 598.134C544.166 613.529 565.131 630.09 585.56 630.09C619.536 630.09 643.873 601.82 647.642 567.9C649.018 555.515 655.544 543.956 657.11 531.425C658.846 517.542 664.217 504.022 668.838 490.647C673.921 475.932 678.042 459.537 680.889 444.166C684.442 424.978 690.562 406.305 693.047 386.925C695.809 365.378 697.451 343.273 702.73 322.153C707.138 304.525 711.593 285.72 714.889 267.926C718.068 250.758 722.82 234.107 726.509 217.141C729.606 202.892 730.914 188.708 735.762 174.856C740.829 160.38 743.613 145.695 749.211 131.388C754.832 117.023 759.833 102.518 765.673 88.2422C770.715 75.918 779.332 59.213 776.863 45.6347C775.187 36.4172 774.929 23.7841 764.597 20.0271C745.734 13.1675 722.135 15.9824 703.699 24.3309L703.076 24.613C688.982 30.9953 674.892 37.3761 660.123 42.2992C648.784 46.0788 639.327 53.4365 627.737 56.8245C617.417 59.8411 607.281 62.326 597.18 66.0777C556.724 81.104 514.687 91.596 474.091 106.211C450.445 114.723 426.462 121.621 402.648 129.559C390.976 133.45 380.076 138.71 368.218 142.47C355.065 146.641 341.51 148.916 328.408 153.23C238.443 182.852 150.483 220.367 67.5982 266.096C52.9206 274.194 15.4004 292.179 16.1679 312.9C17.1065 338.244 42.1915 347.085 62.5412 352.172Z" fill="white" stroke="#1F3C67" stroke-width="31" stroke-linecap="round"/>
<path d="M193.119 384.162C213.188 384.162 235.364 370.504 252.113 360.269C266.569 351.434 281.38 341.145 295.143 331.617C329.719 307.68 364.314 282.225 400.974 261.945C425.84 248.189 449.496 233.402 473.818 218.598C483.803 212.52 490.79 205.857 501.835 201.047C513.754 195.857 527.302 188.772 537.464 180.642C544.969 174.639 555.403 172.084 564.107 168.167C572.785 164.262 581.268 159.216 589.798 154.951C599.202 150.249 608.91 145.709 618.132 140.679C624.724 137.083 612.285 144.652 610.308 146.705C599.465 157.966 591.102 172.566 578.485 182.44C570.905 188.372 562.798 197.451 556.6 204.853C548.692 214.3 537.878 222.095 529.112 230.862C512.838 247.136 495.16 261.853 478.998 278.015C462.036 294.977 442.799 312.211 421.484 323.688C404.128 333.034 386.849 346.527 372.111 359.423C364.994 365.65 357.775 371.75 351.072 378.453C346.456 383.069 342.181 389.984 336.799 393.572C328.137 399.346 321.196 412.828 317.24 422.223C313.214 431.785 316.817 439.466 316.817 448.866" stroke="#1F3C67" stroke-width="31" stroke-linecap="round"/>
</svg>
