<svg width="701" height="689" viewBox="0 0 701 689" fill="none" xmlns="http://www.w3.org/2000/svg">
<path d="M150.569 640.892C175.98 639.833 184.625 640.892 210.037 640.892C217.592 636.482 222.214 620.718 225.958 612.599C232.301 598.845 241.701 586.699 251.126 575.694C288.934 531.551 329.117 489.552 367.136 445.162C406.975 398.645 442.767 347.302 484.901 303.284C502.617 284.777 518.651 265.009 533.365 243.144C550.102 218.272 569.7 196.597 586.278 171.522C600.712 149.689 614.946 132.515 634.039 116.302C645.869 106.256 656.191 92.5713 669.393 84.8644C674.227 82.0423 679.321 80.5323 684.142 78.0302C690.691 74.6322 679.542 70.9291 675.246 67.6423C659.412 55.5302 643.716 44.4263 628.303 31.9679C622.744 27.4738 615.394 21.1699 608.286 21.1699C603.551 21.1699 598.434 34.2568 595.643 37.982C574.928 65.6245 550.102 89.7542 530.205 118.488C486.08 182.211 434.868 239.967 387.037 300.004C361.247 332.374 337.592 365.969 313.755 400.33C294.439 428.173 273.629 454.116 255.926 483.433C241.542 507.255 222.696 526.028 206.994 548.494C193.106 568.364 180.1 592.495 163.68 609.455C154.397 619.044 149.271 635.336 138.395 642.806C136.305 644.241 148.582 640.975 150.569 640.892Z" fill="#1F3C67" stroke="#1F3C67" stroke-width="28" stroke-linecap="round"/>
<path d="M85.5263 37.0962C68.5203 52.2126 47.9068 64.1709 28.3245 75.5679C31.479 77.4104 34.8874 78.9604 36.9937 79.5622C44.7343 81.7738 50.8203 90.6226 56.9858 95.418C69.2317 104.943 79.5646 118.453 88.5595 131.128C113.376 166.097 136.911 202.422 164.667 235.225C207.914 286.334 260.033 330.814 301.027 383.442C327.55 417.492 353.679 450.802 383.34 482.3C405.245 505.562 431.882 524.305 455.311 545.999C490.064 578.177 523.502 611.754 558.167 644.029C566.108 651.422 577.179 664.312 588.224 667.468C597.397 670.089 621.281 647.587 627.106 640.306C632.561 633.488 640.329 629.218 645.03 621.831C648.215 616.825 649.592 611.177 653.854 606.664C655.512 604.909 661.208 601.924 659.782 599.357C651.844 585.069 635.249 572.521 624.624 560.338C568.971 496.53 502.716 444.49 452.83 375.308C402.92 306.093 344.223 240.698 279.657 185.038C252.612 161.724 229.731 132.047 200.653 111.412C180.001 96.7549 156.67 82.4572 138.747 64.5336C127.938 53.7253 118.111 39.5554 110.482 26.2039C106.904 19.9426 108.131 19.9883 102.899 22.8949C96.0766 26.6849 91.2835 31.9786 85.5263 37.0962Z" fill="white"/>
<path d="M25.9636 76.9425C46.2403 65.1291 67.8353 52.8214 85.5263 37.0962C91.2835 31.9786 96.0766 26.6849 102.899 22.8949C108.131 19.9883 106.904 19.9426 110.482 26.2039C118.111 39.5554 127.938 53.7253 138.747 64.5336C156.67 82.4572 180.001 96.7549 200.653 111.412C229.731 132.047 252.612 161.724 279.657 185.038C344.223 240.698 402.92 306.093 452.83 375.308C502.716 444.49 568.971 496.53 624.624 560.338C635.249 572.521 651.844 585.069 659.782 599.357C661.208 601.924 655.512 604.909 653.854 606.664C649.592 611.177 648.215 616.825 645.03 621.831C640.329 629.218 632.561 633.488 627.106 640.306C621.281 647.587 597.397 670.089 588.224 667.468C577.179 664.312 566.108 651.422 558.167 644.029C523.502 611.754 490.064 578.177 455.311 545.999C431.882 524.305 405.245 505.562 383.34 482.3C353.679 450.802 327.55 417.492 301.027 383.442C260.033 330.814 207.914 286.334 164.667 235.225C136.911 202.422 113.376 166.097 88.5595 131.128C79.5646 118.453 69.2317 104.943 56.9858 95.418C50.8203 90.6226 44.7343 81.7738 36.9937 79.5622C32.6522 78.3217 22.7777 73.0525 21 69.4972" stroke="#1F3C67" stroke-width="41" stroke-linecap="round"/>
</svg>
